HIERARCHY
ROOT hip
{
	OFFSET 0.000000 0.000000 0.000000 
	CHANNELS 6 Xposition Yposition Zposition Xrotation Zrotation Yrotation
	JOINT abdomen
	{
		OFFSET 0.000000 3.402643 0.000000 
		CHANNELS 3 Xrotation Zrotation Yrotation
		JOINT chest
		{
			OFFSET 0.000000 8.438565 -0.680529 
			CHANNELS 3 Xrotation Zrotation Yrotation
			JOINT neck
			{
				OFFSET 0.000000 10.207942 -0.272212 
				CHANNELS 3 Xrotation Zrotation Yrotation
				JOINT head
				{
					OFFSET 0.000000 3.130431 0.000000 
					CHANNELS 3 Xrotation Zrotation Yrotation
					End Site
					{
						OFFSET 0.000000 3.130435 0.000000 
					}
				}
			}
			JOINT lCollar
			{
				OFFSET 3.470700 6.669187 -0.816635 
				CHANNELS 3 Yrotation Zrotation Xrotation
				JOINT lShldr
				{
					OFFSET 3.198488 0.000000 0.000000 
					CHANNELS 3 Zrotation Yrotation Xrotation
					JOINT lForeArm
					{
						OFFSET 10.139888 0.000000 0.000000 
						CHANNELS 3 Yrotation Zrotation Xrotation
						JOINT lHand
						{
							OFFSET 8.370511 0.000000 0.000000 
							CHANNELS 3 Zrotation Yrotation Xrotation
							End Site
							{
								OFFSET 4.083176 0.000000 0.000000 
							}
						}
					}
				}
			}
			JOINT rCollar
			{
				OFFSET -3.470700 6.669187 -0.816635 
				CHANNELS 3 Yrotation Zrotation Xrotation
				JOINT rShldr
				{
					OFFSET -3.198488 0.000000 0.000000 
					CHANNELS 3 Zrotation Yrotation Xrotation
					JOINT rForeArm
					{
						OFFSET -10.139888 0.000000 0.000000 
						CHANNELS 3 Yrotation Zrotation Xrotation
						JOINT rHand
						{
							OFFSET -8.370511 0.000000 0.000000 
							CHANNELS 3 Zrotation Yrotation Xrotation
							End Site
							{
								OFFSET -4.083176 0.000000 0.000000 
							}
						}
					}
				}
			}
		}
	}
	JOINT lThigh
	{
		OFFSET 5.308129 -1.633274 1.361059 
		CHANNELS 3 Xrotation Zrotation Yrotation
		JOINT lShin
		{
			OFFSET -2.041588 -20.007561 0.000000 
			CHANNELS 3 Xrotation Zrotation Yrotation
			JOINT lFoot
			{
				OFFSET 0.000000 -19.190928 -1.224953 
				CHANNELS 3 Xrotation Yrotation Zrotation
				End Site
				{
					OFFSET 0.000000 -2.449906 4.627600 
				}
			}
		}
	}
	JOINT rThigh
	{
		OFFSET -5.308129 -1.633274 1.361059 
		CHANNELS 3 Xrotation Zrotation Yrotation
		JOINT rShin
		{
			OFFSET 2.041588 -20.007561 0.000000 
			CHANNELS 3 Xrotation Zrotation Yrotation
			JOINT rFoot
			{
				OFFSET 0.000000 -19.190928 -1.224953 
				CHANNELS 3 Xrotation Yrotation Zrotation
				End Site
				{
					OFFSET 0.000000 -2.449906 4.627600 
				}
			}
		}
	}
}
MOTION
Frames: 13
Frame Time: 0.033333
6.372785 39.381851 18.103540 7.558594 3.867188 -24.950516 25.478514 3.818359 8.720703 -20.673828 1.259766 7.197265 -29.716797 -4.921875 21.093750 15.996095 -11.435547 17.888689 6.230468 12.695312 0.488281 -77.089844 -18.476563 -10.986328 -58.828125 -3.369141 -47.470703 10.585938 -1.894531 -0.400712 -4.199219 2.919922 -0.332529 70.878906 28.623049 43.559368 78.505859 0.781250 12.070180 -36.845703 24.511721 -16.402195 -45.340183 34.061241 2.502659 49.119179 -0.433075 -3.018476 -1.346134 -6.715687 -7.332568 -31.793608 -30.562429 -7.631236 72.284409 -1.416058 3.520246 -35.766060 37.343521 30.841978 
7.643507 39.321560 20.318333 6.855469 4.042969 -32.343750 24.951172 5.234375 9.600499 -19.960938 2.656250 7.402343 -29.013674 -3.876954 24.433594 14.755858 -11.787108 21.435547 5.498047 13.212891 0.583705 -78.505859 -13.447267 -11.386720 -63.203129 -3.427734 -48.955082 11.113281 0.507813 -0.078037 -4.218750 1.855469 -0.234375 72.617188 26.894533 46.933590 78.662109 0.810547 11.181641 -35.439449 25.322266 -16.099339 -40.416355 35.465076 6.004268 55.956890 0.075002 -3.447891 -8.877297 -5.964617 -8.396736 -33.120506 -33.276157 -5.037077 69.121078 -1.240322 3.344691 -29.541790 45.404495 29.294500 
8.744979 39.277885 22.248291 6.328125 4.746094 -39.384766 24.775391 6.347656 10.235455 -18.906250 3.359375 7.773439 -28.476561 -2.646484 26.356972 14.062501 -12.314453 23.689325 5.312500 13.916016 0.554292 -79.550781 -10.185547 -11.718750 -65.556641 -3.466797 -50.516991 10.273438 2.919922 0.322767 -4.218750 0.966797 -0.117188 74.287109 25.849609 48.510117 77.451172 0.791016 11.025391 -31.738283 24.296877 -13.466797 -34.764336 37.146156 14.300706 59.995338 0.258672 -3.548756 -13.299469 -5.941442 -8.756172 -35.228725 -36.448605 -5.040488 67.731697 -1.249269 3.121136 -17.892445 46.652283 20.204144 
9.726686 39.293568 23.824408 5.966797 5.791016 -45.174801 24.765623 7.080078 10.957032 -17.675781 3.173828 8.154297 -28.652344 -1.767578 27.587589 13.710938 -12.666015 25.134579 5.263672 14.628906 0.700659 -79.687500 -8.085938 -11.582030 -66.464844 -3.496094 -54.023438 10.478516 3.417969 0.488865 -4.404297 0.097656 -0.185563 74.423828 25.419924 49.414063 77.441406 0.976563 10.165850 -27.783207 26.044924 -12.343750 -30.221786 37.842613 21.461760 63.152542 0.423708 -3.426814 -15.653083 -6.353538 -9.194921 -38.648602 -38.813972 -6.005241 68.429237 -1.415731 3.386392 -9.158590 40.678490 13.245362 
10.640435 39.324585 25.028339 5.439453 7.373047 -50.097656 25.449217 7.470703 11.591798 -16.621094 2.470703 8.535155 -29.013674 -0.878906 28.115236 13.349610 -13.017578 25.827879 5.078125 14.980470 0.712891 -78.281250 -5.556641 -6.690399 -67.001953 -3.593750 -52.763058 12.519532 -0.546875 -0.166109 -4.580078 -0.966810 -0.087726 73.935547 25.664064 49.789383 78.476563 0.996094 9.247877 -23.017576 27.353514 -10.347076 -28.309458 37.356388 25.800747 66.678421 0.394739 -3.253537 -15.104588 -6.032421 -8.763679 -41.830097 -39.534405 -7.042399 69.656792 -1.268968 3.365703 -11.434561 33.977844 13.843098 
11.514690 39.305187 25.872736 4.912109 8.789063 -53.973114 26.660156 7.558594 11.972656 -15.390624 1.757813 8.740534 -29.882813 -0.888672 28.290863 13.173827 -12.841796 26.015627 4.892578 14.804688 0.771484 -76.572266 -3.984375 -2.275391 -67.529297 -3.466797 -50.360733 12.880860 -3.388672 -0.879484 -4.746094 -2.207031 -0.009390 73.583984 26.298828 49.814453 77.783203 1.025391 6.923653 -21.298826 32.958984 -11.166561 -28.652527 36.786869 28.596102 70.548332 0.928225 -3.612524 -12.573853 -5.799019 -8.643732 -44.237648 -39.139896 -7.385860 69.832901 -1.259164 3.369480 -14.370686 30.304543 14.928003 
12.355606 39.193199 26.412552 4.218750 10.361329 -56.580276 28.232422 7.685547 12.177734 -14.345702 0.878906 8.769681 -30.761717 -0.537109 27.939398 13.173827 -12.490232 25.830080 5.263672 14.453126 0.710453 -75.058594 -2.871094 -0.830078 -69.609375 -3.447266 -50.858788 10.937500 -3.095703 -0.596229 -4.912109 -3.281250 0.068359 74.384766 26.826172 48.769527 77.783203 1.171875 6.240035 -19.316404 33.837887 -10.141047 -31.629902 36.781189 28.918030 75.093246 1.251625 -3.567323 -7.020802 -6.341326 -8.221341 -46.054165 -37.440903 -5.932796 68.954636 -1.259238 3.335385 -18.580793 21.541409 14.306430 
13.144825 38.977139 26.742813 4.042969 11.601563 -58.328114 29.638670 7.685546 12.177735 -13.115233 0.341797 8.447316 -31.113281 -0.185547 27.412079 13.525390 -12.128906 25.312498 6.132813 13.964844 0.722656 -72.822266 -2.851563 -0.458984 -71.982422 -3.388672 -49.491604 9.531250 -3.281250 -0.517578 -5.087891 -3.447265 0.039063 75.117188 27.431641 46.733013 78.828125 0.947266 7.968750 -17.734377 34.560551 -9.345702 -36.355614 37.434895 26.571836 79.838310 1.408011 -3.799654 -3.043290 -8.551446 -7.680481 -47.747654 -35.805756 -1.812396 66.679520 -1.074240 3.191712 -21.118965 16.701677 13.624954 
13.872132 38.653385 26.952488 4.218750 12.294922 -59.206909 30.712889 7.900391 12.050783 -12.587891 0.341797 8.105469 -30.937498 0.527344 26.543024 13.710938 -11.777343 24.609375 7.177735 14.169923 0.612844 -70.556641 -4.531250 0.526572 -74.414063 -3.330078 -48.876953 9.179688 -2.080078 -0.322620 -5.625000 -3.105469 0.039592 74.746094 28.144531 44.746094 81.767578 0.751953 10.927711 -17.744141 35.781254 -9.672025 -40.378105 37.962402 22.707663 82.461746 1.582976 -3.774175 -6.441845 -10.115679 -8.512903 -49.620834 -34.731316 2.145909 65.629227 -1.074025 3.314140 -21.479807 14.862420 12.956139 
14.525441 38.218349 27.126036 4.912109 12.480469 -59.597500 31.445313 7.978516 11.710340 -12.060548 1.035156 7.763648 -30.585936 1.230469 25.664272 13.876953 -11.611328 24.070301 7.744140 15.458985 0.771484 -68.789063 -5.195313 2.411225 -77.548828 -3.427734 -51.776760 8.994141 -1.552734 -0.302997 -6.328125 -2.402344 0.078534 73.027344 28.076172 42.348343 86.572266 0.693359 12.841796 -18.378908 35.654297 -9.931642 -42.144306 38.547123 19.024935 82.461746 1.582977 -3.774162 -13.317462 -2.616592 -8.029373 -51.642830 -34.263340 3.348911 65.980522 -1.074115 3.327947 -21.181496 14.968964 12.940912 
15.068626 37.693054 27.303768 5.625000 11.601563 -59.910145 31.992186 7.763672 11.142578 -11.347656 2.089844 7.256215 -30.244143 2.109375 24.785158 13.710938 -11.777343 23.378908 8.359375 16.738281 0.771484 -68.134766 -3.964844 3.339170 -82.783203 -3.437500 -53.955074 10.400391 -1.191406 -0.390625 -7.031250 -2.031250 -0.087544 70.878906 26.152344 39.281647 92.373047 0.644531 13.632703 -21.494141 35.000000 -11.845704 -38.824261 38.762638 16.417534 77.189560 1.427571 -4.050258 -14.671059 0.537733 -7.035603 -53.034019 -33.904678 4.097928 67.025459 -1.064368 3.356421 -20.569136 14.894546 12.757840 
15.480081 37.177170 27.441425 5.976563 10.361328 -60.478519 32.373047 6.943360 10.040243 -10.458985 3.486328 6.582031 -30.058590 3.164063 23.916555 13.710938 -11.953124 22.851564 8.974610 17.841799 0.709899 -68.007813 -2.197265 3.271111 -88.906250 -3.476563 -56.064453 12.519532 -1.035156 -0.332208 -7.910156 -2.402344 0.009766 69.394531 24.541016 36.875000 98.193359 0.781250 13.495932 -25.556643 30.312500 -12.656250 -32.486172 38.556572 14.812284 70.883324 0.930660 -3.799035 -20.561249 -2.341427 -8.043839 -53.626652 -32.975479 4.922072 68.944969 -1.250133 3.341015 -20.041471 14.162562 12.274387 
15.763988 36.779305 27.432364 6.152343 8.603516 -60.654301 32.568356 5.781250 8.847656 -9.218750 4.179688 5.908916 -29.541016 4.384766 22.676527 14.228516 -12.128905 21.972656 9.531250 18.798826 0.888672 -66.972656 -1.728516 3.544627 -94.453125 -3.535156 -57.079479 12.167969 -1.035156 -0.312676 -8.779298 -2.949219 0.068359 68.085938 24.404295 35.019531 101.962891 0.966797 11.152342 -26.962889 22.763672 -10.572393 -29.676205 40.327885 15.656262 69.485649 0.755049 -3.691469 -24.650177 -4.575672 -9.520258 -53.844074 -31.775692 5.253031 71.060051 -1.434899 3.316267 -20.119652 12.308302 11.543970 
